<svg xmlns="http://www.w3.org/2000/svg" width="192" height="192" viewBox="0 0 48 48" shape-rendering="crispEdges" role="img" data-duration-ms="2920" data-loop="true"><title>Hex Buddy · Was ist denn da?</title><style>.pm-poster{display:none}.is-static .pm-frames{display:none}.is-static .pm-poster{display:inline}@media(prefers-reduced-motion:reduce){.pm-frames{display:none}.pm-poster{display:inline}}</style><defs><g id="halloween-curious-pose-0"><path fill="#2B2433" d="M21 10h7v1h-7zM20 11h2v1h-2zM26 11h1v1h-1zM18 12h3v1h-3zM25 12h2v1h-2zM17 13h2v1h-2zM24 13h2v1h-2zM17 14h1v1h-1zM25 14h2v1h-2zM16 15h2v1h-2zM25 15h2v1h-2zM16 16h1v1h-1zM27 16h1v1h-1zM15 17h1v1h-1zM24 17h2v1h-2zM28 17h1v1h-1zM13 18h2v1h-2zM29 18h6v1h-6zM11 19h3v1h-3zM31 19h5v1h-5zM12 20h1v1h-1zM29 20h9v1h-9zM12 21h24v1h-24zM14 22h1v1h-1zM24 22h1v1h-1zM33 22h1v1h-1zM13 23h1v1h-1zM34 23h1v1h-1zM13 24h1v1h-1zM28 24h2v1h-2zM34 24h1v1h-1zM12 25h1v1h-1zM18 25h1v1h-1zM27 25h3v1h-3zM35 25h1v1h-1zM12 26h1v1h-1zM19 26h2v1h-2zM27 26h3v1h-3zM35 26h1v1h-1zM12 27h1v1h-1zM18 27h1v1h-1zM27 27h3v1h-3zM35 27h1v1h-1zM12 28h1v1h-1zM35 28h1v1h-1zM13 29h1v1h-1zM21 29h1v1h-1zM26 29h1v1h-1zM34 29h1v1h-1zM13 30h1v1h-1zM22 30h4v1h-4zM34 30h1v1h-1zM14 31h1v1h-1zM33 31h1v1h-1zM15 32h1v1h-1zM32 32h1v1h-1zM16 33h2v1h-2zM30 33h2v1h-2zM18 34h2v1h-2zM28 34h2v1h-2zM20 35h8v1h-8z"/><path fill="#655B87" d="M22 11h4v1h-4zM21 12h1v1h-1zM19 13h1v1h-1zM18 14h1v1h-1zM23 14h2v1h-2zM18 15h1v1h-1zM23 15h2v1h-2zM17 16h1v1h-1zM22 16h1v1h-1zM15 18h1v1h-1zM14 19h2v1h-2zM17 19h14v1h-14zM13 20h2v1h-2z"/><path fill="#AAA0BE" d="M22 12h3v1h-3zM20 13h4v1h-4zM19 14h4v1h-4zM19 15h4v1h-4zM18 16h4v1h-4zM15 20h14v1h-14z"/><path fill="#F8BD72" d="M23 16h4v1h-4zM23 17h1v1h-1zM26 17h1v1h-1zM23 18h4v1h-4zM15 22h2v1h-2zM18 22h6v1h-6zM25 22h2v1h-2zM15 23h2v1h-2zM18 23h10v1h-10zM15 24h12v1h-12zM15 25h3v1h-3zM19 25h8v1h-8zM15 26h4v1h-4zM21 26h6v1h-6zM15 27h3v1h-3zM19 27h8v1h-8zM15 28h12v1h-12zM18 29h3v1h-3zM22 29h4v1h-4zM30 29h2v1h-2zM16 30h1v1h-1zM19 30h3v1h-3zM19 31h7v1h-7zM21 32h3v1h-3z"/><path fill="#B75C45" d="M16 17h7v1h-7zM27 17h1v1h-1zM16 18h7v1h-7zM27 18h2v1h-2zM16 19h1v1h-1zM17 22h1v1h-1zM29 22h1v1h-1zM31 22h2v1h-2zM17 23h1v1h-1zM29 23h1v1h-1zM31 23h3v1h-3zM31 24h3v1h-3zM32 25h3v1h-3zM32 26h3v1h-3zM32 27h2v1h-2zM32 28h2v1h-2zM32 29h2v1h-2zM17 30h1v1h-1zM29 30h1v1h-1zM32 30h2v1h-2zM18 31h1v1h-1zM28 31h1v1h-1zM31 31h2v1h-2zM18 32h1v1h-1zM28 32h1v1h-1zM31 32h1v1h-1zM19 33h1v1h-1zM27 33h1v1h-1z"/><path fill="#E9904D" d="M27 22h2v1h-2zM30 22h1v1h-1zM14 23h1v1h-1zM28 23h1v1h-1zM30 23h1v1h-1zM14 24h1v1h-1zM30 24h1v1h-1zM13 25h2v1h-2zM30 25h2v1h-2zM13 26h2v1h-2zM30 26h2v1h-2zM13 27h2v1h-2zM30 27h2v1h-2zM13 28h2v1h-2zM27 28h5v1h-5zM14 29h1v1h-1zM27 29h3v1h-3zM14 30h2v1h-2zM18 30h1v1h-1zM26 30h3v1h-3zM30 30h1v1h-1zM15 31h3v1h-3zM26 31h2v1h-2zM29 31h2v1h-2zM17 32h1v1h-1zM19 32h2v1h-2zM24 32h4v1h-4zM29 32h1v1h-1zM18 33h1v1h-1zM20 33h7v1h-7zM28 33h1v1h-1zM20 34h8v1h-8z"/><path fill="#FFF2D9" d="M27 24h1v1h-1z"/><path fill="#784153" d="M34 27h1v1h-1zM34 28h1v1h-1zM31 30h1v1h-1zM16 32h1v1h-1zM30 32h1v1h-1zM29 33h1v1h-1z"/><path fill="#FFE5AC" d="M15 29h3v1h-3z"/></g><g id="halloween-curious-pose-1"><path fill="#2B2433" d="M18 10h7v1h-7zM17 11h2v1h-2zM23 11h1v1h-1zM15 12h3v1h-3zM22 12h2v1h-2zM14 13h2v1h-2zM21 13h2v1h-2zM14 14h1v1h-1zM22 14h2v1h-2zM13 15h2v1h-2zM22 15h2v1h-2zM14 16h1v1h-1zM25 16h1v1h-1zM14 17h1v1h-1zM23 17h2v1h-2zM27 17h1v1h-1zM12 18h2v1h-2zM28 18h6v1h-6zM10 19h3v1h-3zM30 19h5v1h-5zM11 20h1v1h-1zM28 20h9v1h-9zM11 21h24v1h-24zM13 22h1v1h-1zM23 22h1v1h-1zM32 22h1v1h-1zM12 23h1v1h-1zM33 23h1v1h-1zM13 24h1v1h-1zM18 24h2v1h-2zM27 24h2v1h-2zM34 24h1v1h-1zM12 25h1v1h-1zM17 25h3v1h-3zM26 25h3v1h-3zM35 25h1v1h-1zM12 26h1v1h-1zM17 26h3v1h-3zM26 26h3v1h-3zM35 26h1v1h-1zM12 27h1v1h-1zM17 27h3v1h-3zM26 27h3v1h-3zM35 27h1v1h-1zM12 28h1v1h-1zM35 28h1v1h-1zM13 29h1v1h-1zM21 29h1v1h-1zM26 29h1v1h-1zM34 29h1v1h-1zM13 30h1v1h-1zM22 30h4v1h-4zM34 30h1v1h-1zM14 31h1v1h-1zM33 31h1v1h-1zM16 32h1v1h-1zM33 32h1v1h-1zM17 33h2v1h-2zM31 33h2v1h-2zM19 34h2v1h-2zM29 34h2v1h-2zM21 35h8v1h-8z"/><path fill="#655B87" d="M19 11h4v1h-4zM18 12h1v1h-1zM16 13h1v1h-1zM15 14h1v1h-1zM20 14h2v1h-2zM15 15h1v1h-1zM20 15h2v1h-2zM15 16h1v1h-1zM20 16h1v1h-1zM14 18h1v1h-1zM13 19h2v1h-2zM16 19h14v1h-14zM12 20h2v1h-2z"/><path fill="#AAA0BE" d="M19 12h3v1h-3zM17 13h4v1h-4zM16 14h4v1h-4zM16 15h4v1h-4zM16 16h4v1h-4zM14 20h14v1h-14z"/><path fill="#F8BD72" d="M21 16h4v1h-4zM22 17h1v1h-1zM25 17h1v1h-1zM22 18h4v1h-4zM14 22h2v1h-2zM17 22h6v1h-6zM24 22h2v1h-2zM14 23h2v1h-2zM17 23h10v1h-10zM15 24h2v1h-2zM20 24h6v1h-6zM15 25h2v1h-2zM20 25h6v1h-6zM15 26h2v1h-2zM20 26h6v1h-6zM15 27h2v1h-2zM20 27h6v1h-6zM15 28h12v1h-12zM18 29h3v1h-3zM22 29h4v1h-4zM30 29h2v1h-2zM16 30h1v1h-1zM19 30h3v1h-3zM19 31h7v1h-7zM22 32h3v1h-3z"/><path fill="#B75C45" d="M15 17h7v1h-7zM26 17h1v1h-1zM15 18h7v1h-7zM26 18h2v1h-2zM15 19h1v1h-1zM16 22h1v1h-1zM28 22h1v1h-1zM30 22h2v1h-2zM16 23h1v1h-1zM28 23h1v1h-1zM30 23h3v1h-3zM31 24h3v1h-3zM32 25h3v1h-3zM32 26h3v1h-3zM32 27h2v1h-2zM32 28h2v1h-2zM32 29h2v1h-2zM17 30h1v1h-1zM29 30h1v1h-1zM32 30h2v1h-2zM18 31h1v1h-1zM28 31h1v1h-1zM31 31h2v1h-2zM19 32h1v1h-1zM29 32h1v1h-1zM32 32h1v1h-1zM20 33h1v1h-1zM28 33h1v1h-1z"/><path fill="#E9904D" d="M26 22h2v1h-2zM29 22h1v1h-1zM13 23h1v1h-1zM27 23h1v1h-1zM29 23h1v1h-1zM14 24h1v1h-1zM29 24h2v1h-2zM13 25h2v1h-2zM29 25h3v1h-3zM13 26h2v1h-2zM29 26h3v1h-3zM13 27h2v1h-2zM29 27h3v1h-3zM13 28h2v1h-2zM27 28h5v1h-5zM14 29h1v1h-1zM27 29h3v1h-3zM14 30h2v1h-2zM18 30h1v1h-1zM26 30h3v1h-3zM30 30h1v1h-1zM15 31h3v1h-3zM26 31h2v1h-2zM29 31h2v1h-2zM18 32h1v1h-1zM20 32h2v1h-2zM25 32h4v1h-4zM30 32h1v1h-1zM19 33h1v1h-1zM21 33h7v1h-7zM29 33h1v1h-1zM21 34h8v1h-8z"/><path fill="#FFF2D9" d="M17 24h1v1h-1zM26 24h1v1h-1z"/><path fill="#784153" d="M34 27h1v1h-1zM34 28h1v1h-1zM31 30h1v1h-1zM17 32h1v1h-1zM31 32h1v1h-1zM30 33h1v1h-1z"/><path fill="#FFE5AC" d="M15 29h3v1h-3z"/></g><g id="halloween-curious-pose-2"><path fill="#2B2433" d="M19 10h7v1h-7zM18 11h2v1h-2zM24 11h1v1h-1zM16 12h3v1h-3zM23 12h2v1h-2zM15 13h2v1h-2zM22 13h2v1h-2zM15 14h1v1h-1zM23 14h2v1h-2zM14 15h2v1h-2zM23 15h2v1h-2zM15 16h1v1h-1zM26 16h1v1h-1zM14 17h1v1h-1zM23 17h2v1h-2zM27 17h1v1h-1zM12 18h2v1h-2zM28 18h6v1h-6zM10 19h3v1h-3zM30 19h5v1h-5zM11 20h1v1h-1zM28 20h9v1h-9zM11 21h24v1h-24zM13 22h1v1h-1zM23 22h1v1h-1zM32 22h1v1h-1zM12 23h1v1h-1zM33 23h1v1h-1zM13 24h1v1h-1zM34 24h1v1h-1zM12 25h1v1h-1zM35 25h1v1h-1zM12 26h1v1h-1zM18 26h3v1h-3zM27 26h3v1h-3zM35 26h1v1h-1zM12 27h1v1h-1zM35 27h1v1h-1zM12 28h1v1h-1zM35 28h1v1h-1zM13 29h1v1h-1zM21 29h1v1h-1zM26 29h1v1h-1zM34 29h1v1h-1zM13 30h1v1h-1zM22 30h4v1h-4zM34 30h1v1h-1zM14 31h1v1h-1zM33 31h1v1h-1zM16 32h1v1h-1zM33 32h1v1h-1zM17 33h2v1h-2zM31 33h2v1h-2zM19 34h2v1h-2zM29 34h2v1h-2zM21 35h8v1h-8z"/><path fill="#655B87" d="M20 11h4v1h-4zM19 12h1v1h-1zM17 13h1v1h-1zM16 14h1v1h-1zM21 14h2v1h-2zM16 15h1v1h-1zM21 15h2v1h-2zM16 16h1v1h-1zM21 16h1v1h-1zM14 18h1v1h-1zM13 19h2v1h-2zM16 19h14v1h-14zM12 20h2v1h-2z"/><path fill="#AAA0BE" d="M20 12h3v1h-3zM18 13h4v1h-4zM17 14h4v1h-4zM17 15h4v1h-4zM17 16h4v1h-4zM14 20h14v1h-14z"/><path fill="#F8BD72" d="M22 16h4v1h-4zM22 17h1v1h-1zM25 17h1v1h-1zM22 18h4v1h-4zM14 22h2v1h-2zM17 22h6v1h-6zM24 22h2v1h-2zM14 23h2v1h-2zM17 23h10v1h-10zM15 24h13v1h-13zM15 25h13v1h-13zM15 26h3v1h-3zM21 26h6v1h-6zM15 27h13v1h-13zM15 28h12v1h-12zM18 29h3v1h-3zM22 29h4v1h-4zM30 29h2v1h-2zM16 30h1v1h-1zM19 30h3v1h-3zM19 31h7v1h-7zM22 32h3v1h-3z"/><path fill="#B75C45" d="M15 17h7v1h-7zM26 17h1v1h-1zM15 18h7v1h-7zM26 18h2v1h-2zM15 19h1v1h-1zM16 22h1v1h-1zM28 22h1v1h-1zM30 22h2v1h-2zM16 23h1v1h-1zM28 23h1v1h-1zM30 23h3v1h-3zM31 24h3v1h-3zM32 25h3v1h-3zM32 26h3v1h-3zM32 27h2v1h-2zM32 28h2v1h-2zM32 29h2v1h-2zM17 30h1v1h-1zM29 30h1v1h-1zM32 30h2v1h-2zM18 31h1v1h-1zM28 31h1v1h-1zM31 31h2v1h-2zM19 32h1v1h-1zM29 32h1v1h-1zM32 32h1v1h-1zM20 33h1v1h-1zM28 33h1v1h-1z"/><path fill="#E9904D" d="M26 22h2v1h-2zM29 22h1v1h-1zM13 23h1v1h-1zM27 23h1v1h-1zM29 23h1v1h-1zM14 24h1v1h-1zM28 24h3v1h-3zM13 25h2v1h-2zM28 25h4v1h-4zM13 26h2v1h-2zM30 26h2v1h-2zM13 27h2v1h-2zM28 27h4v1h-4zM13 28h2v1h-2zM27 28h5v1h-5zM14 29h1v1h-1zM27 29h3v1h-3zM14 30h2v1h-2zM18 30h1v1h-1zM26 30h3v1h-3zM30 30h1v1h-1zM15 31h3v1h-3zM26 31h2v1h-2zM29 31h2v1h-2zM18 32h1v1h-1zM20 32h2v1h-2zM25 32h4v1h-4zM30 32h1v1h-1zM19 33h1v1h-1zM21 33h7v1h-7zM29 33h1v1h-1zM21 34h8v1h-8z"/><path fill="#784153" d="M34 27h1v1h-1zM34 28h1v1h-1zM31 30h1v1h-1zM17 32h1v1h-1zM31 32h1v1h-1zM30 33h1v1h-1z"/><path fill="#FFE5AC" d="M15 29h3v1h-3z"/></g><g id="halloween-curious-pose-3"><path fill="#2B2433" d="M19 10h7v1h-7zM18 11h2v1h-2zM24 11h1v1h-1zM16 12h3v1h-3zM23 12h2v1h-2zM15 13h2v1h-2zM22 13h2v1h-2zM15 14h1v1h-1zM23 14h2v1h-2zM14 15h2v1h-2zM23 15h2v1h-2zM15 16h1v1h-1zM26 16h1v1h-1zM14 17h1v1h-1zM23 17h2v1h-2zM27 17h1v1h-1zM12 18h2v1h-2zM28 18h6v1h-6zM10 19h3v1h-3zM30 19h5v1h-5zM11 20h1v1h-1zM28 20h9v1h-9zM11 21h24v1h-24zM13 22h1v1h-1zM23 22h1v1h-1zM32 22h1v1h-1zM12 23h1v1h-1zM33 23h1v1h-1zM13 24h1v1h-1zM19 24h2v1h-2zM34 24h1v1h-1zM12 25h1v1h-1zM18 25h3v1h-3zM28 25h2v1h-2zM35 25h1v1h-1zM12 26h1v1h-1zM18 26h3v1h-3zM27 26h3v1h-3zM35 26h1v1h-1zM12 27h1v1h-1zM18 27h3v1h-3zM27 27h3v1h-3zM35 27h1v1h-1zM12 28h1v1h-1zM35 28h1v1h-1zM13 29h1v1h-1zM21 29h1v1h-1zM26 29h1v1h-1zM34 29h1v1h-1zM13 30h1v1h-1zM22 30h4v1h-4zM34 30h1v1h-1zM14 31h1v1h-1zM33 31h1v1h-1zM16 32h1v1h-1zM33 32h1v1h-1zM17 33h2v1h-2zM31 33h2v1h-2zM19 34h2v1h-2zM29 34h2v1h-2zM21 35h8v1h-8z"/><path fill="#A9B4C8" d="M38 10h3v1h-3zM41 11h1v1h-1zM40 12h1v1h-1zM39 13h1v1h-1zM39 15h2v1h-2z"/><path fill="#655B87" d="M20 11h4v1h-4zM19 12h1v1h-1zM17 13h1v1h-1zM16 14h1v1h-1zM21 14h2v1h-2zM16 15h1v1h-1zM21 15h2v1h-2zM16 16h1v1h-1zM21 16h1v1h-1zM14 18h1v1h-1zM13 19h2v1h-2zM16 19h14v1h-14zM12 20h2v1h-2z"/><path fill="#AAA0BE" d="M20 12h3v1h-3zM18 13h4v1h-4zM17 14h4v1h-4zM17 15h4v1h-4zM17 16h4v1h-4zM14 20h14v1h-14z"/><path fill="#F8BD72" d="M22 16h4v1h-4zM22 17h1v1h-1zM25 17h1v1h-1zM22 18h4v1h-4zM14 22h2v1h-2zM17 22h6v1h-6zM24 22h2v1h-2zM14 23h2v1h-2zM17 23h10v1h-10zM15 24h3v1h-3zM21 24h7v1h-7zM15 25h3v1h-3zM21 25h6v1h-6zM15 26h3v1h-3zM21 26h6v1h-6zM15 27h3v1h-3zM21 27h6v1h-6zM15 28h12v1h-12zM18 29h3v1h-3zM22 29h4v1h-4zM30 29h2v1h-2zM16 30h1v1h-1zM19 30h3v1h-3zM19 31h7v1h-7zM22 32h3v1h-3z"/><path fill="#B75C45" d="M15 17h7v1h-7zM26 17h1v1h-1zM15 18h7v1h-7zM26 18h2v1h-2zM15 19h1v1h-1zM16 22h1v1h-1zM28 22h1v1h-1zM30 22h2v1h-2zM16 23h1v1h-1zM28 23h1v1h-1zM30 23h3v1h-3zM31 24h3v1h-3zM32 25h3v1h-3zM32 26h3v1h-3zM32 27h2v1h-2zM32 28h2v1h-2zM32 29h2v1h-2zM17 30h1v1h-1zM29 30h1v1h-1zM32 30h2v1h-2zM18 31h1v1h-1zM28 31h1v1h-1zM31 31h2v1h-2zM19 32h1v1h-1zM29 32h1v1h-1zM32 32h1v1h-1zM20 33h1v1h-1zM28 33h1v1h-1z"/><path fill="#E9904D" d="M26 22h2v1h-2zM29 22h1v1h-1zM13 23h1v1h-1zM27 23h1v1h-1zM29 23h1v1h-1zM14 24h1v1h-1zM28 24h3v1h-3zM13 25h2v1h-2zM30 25h2v1h-2zM13 26h2v1h-2zM30 26h2v1h-2zM13 27h2v1h-2zM30 27h2v1h-2zM13 28h2v1h-2zM27 28h5v1h-5zM14 29h1v1h-1zM27 29h3v1h-3zM14 30h2v1h-2zM18 30h1v1h-1zM26 30h3v1h-3zM30 30h1v1h-1zM15 31h3v1h-3zM26 31h2v1h-2zM29 31h2v1h-2zM18 32h1v1h-1zM20 32h2v1h-2zM25 32h4v1h-4zM30 32h1v1h-1zM19 33h1v1h-1zM21 33h7v1h-7zM29 33h1v1h-1zM21 34h8v1h-8z"/><path fill="#FFF2D9" d="M18 24h1v1h-1zM27 25h1v1h-1z"/><path fill="#784153" d="M34 27h1v1h-1zM34 28h1v1h-1zM31 30h1v1h-1zM17 32h1v1h-1zM31 32h1v1h-1zM30 33h1v1h-1z"/><path fill="#FFE5AC" d="M15 29h3v1h-3z"/></g><g id="halloween-curious-pose-4"><path fill="#A9B4C8" d="M39 8h3v1h-3zM42 9h1v1h-1zM41 10h1v1h-1zM40 11h1v1h-1zM40 13h2v1h-2z"/><path fill="#2B2433" d="M24 10h7v1h-7zM23 11h2v1h-2zM29 11h1v1h-1zM21 12h3v1h-3zM28 12h2v1h-2zM20 13h2v1h-2zM27 13h2v1h-2zM20 14h1v1h-1zM28 14h2v1h-2zM19 15h2v1h-2zM28 15h2v1h-2zM18 16h1v1h-1zM29 16h1v1h-1zM16 17h1v1h-1zM25 17h2v1h-2zM29 17h1v1h-1zM14 18h2v1h-2zM30 18h6v1h-6zM12 19h3v1h-3zM32 19h5v1h-5zM13 20h1v1h-1zM30 20h9v1h-9zM13 21h24v1h-24zM15 22h1v1h-1zM25 22h1v1h-1zM34 22h1v1h-1zM14 23h1v1h-1zM35 23h1v1h-1zM13 24h1v1h-1zM20 24h2v1h-2zM29 24h2v1h-2zM34 24h1v1h-1zM12 25h1v1h-1zM19 25h3v1h-3zM28 25h3v1h-3zM35 25h1v1h-1zM12 26h1v1h-1zM19 26h3v1h-3zM28 26h3v1h-3zM35 26h1v1h-1zM12 27h1v1h-1zM19 27h3v1h-3zM28 27h3v1h-3zM35 27h1v1h-1zM12 28h1v1h-1zM35 28h1v1h-1zM13 29h1v1h-1zM21 29h1v1h-1zM26 29h1v1h-1zM34 29h1v1h-1zM13 30h1v1h-1zM22 30h4v1h-4zM34 30h1v1h-1zM14 31h1v1h-1zM33 31h1v1h-1zM14 32h1v1h-1zM31 32h1v1h-1zM15 33h2v1h-2zM29 33h2v1h-2zM17 34h2v1h-2zM27 34h2v1h-2zM19 35h8v1h-8z"/><path fill="#655B87" d="M25 11h4v1h-4zM24 12h1v1h-1zM22 13h1v1h-1zM21 14h1v1h-1zM26 14h2v1h-2zM21 15h1v1h-1zM26 15h2v1h-2zM19 16h1v1h-1zM24 16h1v1h-1zM16 18h1v1h-1zM15 19h2v1h-2zM18 19h14v1h-14zM14 20h2v1h-2z"/><path fill="#AAA0BE" d="M25 12h3v1h-3zM23 13h4v1h-4zM22 14h4v1h-4zM22 15h4v1h-4zM20 16h4v1h-4zM16 20h14v1h-14z"/><path fill="#F8BD72" d="M25 16h4v1h-4zM24 17h1v1h-1zM27 17h1v1h-1zM24 18h4v1h-4zM16 22h2v1h-2zM19 22h6v1h-6zM26 22h2v1h-2zM16 23h2v1h-2zM19 23h10v1h-10zM15 24h4v1h-4zM22 24h6v1h-6zM15 25h4v1h-4zM22 25h6v1h-6zM15 26h4v1h-4zM22 26h6v1h-6zM15 27h4v1h-4zM22 27h6v1h-6zM15 28h12v1h-12zM18 29h3v1h-3zM22 29h4v1h-4zM30 29h2v1h-2zM16 30h1v1h-1zM19 30h3v1h-3zM19 31h7v1h-7zM20 32h3v1h-3z"/><path fill="#B75C45" d="M17 17h7v1h-7zM28 17h1v1h-1zM17 18h7v1h-7zM28 18h2v1h-2zM17 19h1v1h-1zM18 22h1v1h-1zM30 22h1v1h-1zM32 22h2v1h-2zM18 23h1v1h-1zM30 23h1v1h-1zM32 23h3v1h-3zM31 24h3v1h-3zM32 25h3v1h-3zM32 26h3v1h-3zM32 27h2v1h-2zM32 28h2v1h-2zM32 29h2v1h-2zM17 30h1v1h-1zM29 30h1v1h-1zM32 30h2v1h-2zM18 31h1v1h-1zM28 31h1v1h-1zM31 31h2v1h-2zM17 32h1v1h-1zM27 32h1v1h-1zM30 32h1v1h-1zM18 33h1v1h-1zM26 33h1v1h-1z"/><path fill="#E9904D" d="M28 22h2v1h-2zM31 22h1v1h-1zM15 23h1v1h-1zM29 23h1v1h-1zM31 23h1v1h-1zM14 24h1v1h-1zM13 25h2v1h-2zM31 25h1v1h-1zM13 26h2v1h-2zM31 26h1v1h-1zM13 27h2v1h-2zM31 27h1v1h-1zM13 28h2v1h-2zM27 28h5v1h-5zM14 29h1v1h-1zM27 29h3v1h-3zM14 30h2v1h-2zM18 30h1v1h-1zM26 30h3v1h-3zM30 30h1v1h-1zM15 31h3v1h-3zM26 31h2v1h-2zM29 31h2v1h-2zM16 32h1v1h-1zM18 32h2v1h-2zM23 32h4v1h-4zM28 32h1v1h-1zM17 33h1v1h-1zM19 33h7v1h-7zM27 33h1v1h-1zM19 34h8v1h-8z"/><path fill="#FFF2D9" d="M19 24h1v1h-1zM28 24h1v1h-1z"/><path fill="#784153" d="M34 27h1v1h-1zM34 28h1v1h-1zM31 30h1v1h-1zM15 32h1v1h-1zM29 32h1v1h-1zM28 33h1v1h-1z"/><path fill="#FFE5AC" d="M15 29h3v1h-3z"/></g><g id="halloween-curious-pose-5"><path fill="#2B2433" d="M21 10h7v1h-7zM20 11h2v1h-2zM26 11h1v1h-1zM18 12h3v1h-3zM25 12h2v1h-2zM17 13h2v1h-2zM24 13h2v1h-2zM17 14h1v1h-1zM25 14h2v1h-2zM16 15h2v1h-2zM25 15h2v1h-2zM16 16h1v1h-1zM27 16h1v1h-1zM15 17h1v1h-1zM24 17h2v1h-2zM28 17h1v1h-1zM13 18h2v1h-2zM29 18h6v1h-6zM11 19h3v1h-3zM31 19h5v1h-5zM12 20h1v1h-1zM29 20h9v1h-9zM12 21h24v1h-24zM14 22h1v1h-1zM24 22h1v1h-1zM33 22h1v1h-1zM13 23h1v1h-1zM34 23h1v1h-1zM13 24h1v1h-1zM19 24h2v1h-2zM34 24h1v1h-1zM12 25h1v1h-1zM18 25h3v1h-3zM28 25h2v1h-2zM35 25h1v1h-1zM12 26h1v1h-1zM18 26h3v1h-3zM27 26h3v1h-3zM35 26h1v1h-1zM12 27h1v1h-1zM18 27h3v1h-3zM27 27h3v1h-3zM35 27h1v1h-1zM12 28h1v1h-1zM35 28h1v1h-1zM13 29h1v1h-1zM21 29h1v1h-1zM26 29h1v1h-1zM34 29h1v1h-1zM13 30h1v1h-1zM22 30h4v1h-4zM34 30h1v1h-1zM14 31h1v1h-1zM33 31h1v1h-1zM15 32h1v1h-1zM32 32h1v1h-1zM16 33h2v1h-2zM30 33h2v1h-2zM18 34h2v1h-2zM28 34h2v1h-2zM20 35h8v1h-8z"/><path fill="#655B87" d="M22 11h4v1h-4zM21 12h1v1h-1zM19 13h1v1h-1zM18 14h1v1h-1zM23 14h2v1h-2zM18 15h1v1h-1zM23 15h2v1h-2zM17 16h1v1h-1zM22 16h1v1h-1zM15 18h1v1h-1zM14 19h2v1h-2zM17 19h14v1h-14zM13 20h2v1h-2z"/><path fill="#AAA0BE" d="M22 12h3v1h-3zM20 13h4v1h-4zM19 14h4v1h-4zM19 15h4v1h-4zM18 16h4v1h-4zM15 20h14v1h-14z"/><path fill="#F8BD72" d="M23 16h4v1h-4zM23 17h1v1h-1zM26 17h1v1h-1zM23 18h4v1h-4zM15 22h2v1h-2zM18 22h6v1h-6zM25 22h2v1h-2zM15 23h2v1h-2zM18 23h10v1h-10zM15 24h3v1h-3zM21 24h7v1h-7zM15 25h3v1h-3zM21 25h6v1h-6zM15 26h3v1h-3zM21 26h6v1h-6zM15 27h3v1h-3zM21 27h6v1h-6zM15 28h12v1h-12zM18 29h3v1h-3zM22 29h4v1h-4zM30 29h2v1h-2zM16 30h1v1h-1zM19 30h3v1h-3zM19 31h7v1h-7zM21 32h3v1h-3z"/><path fill="#B75C45" d="M16 17h7v1h-7zM27 17h1v1h-1zM16 18h7v1h-7zM27 18h2v1h-2zM16 19h1v1h-1zM17 22h1v1h-1zM29 22h1v1h-1zM31 22h2v1h-2zM17 23h1v1h-1zM29 23h1v1h-1zM31 23h3v1h-3zM31 24h3v1h-3zM32 25h3v1h-3zM32 26h3v1h-3zM32 27h2v1h-2zM32 28h2v1h-2zM32 29h2v1h-2zM17 30h1v1h-1zM29 30h1v1h-1zM32 30h2v1h-2zM18 31h1v1h-1zM28 31h1v1h-1zM31 31h2v1h-2zM18 32h1v1h-1zM28 32h1v1h-1zM31 32h1v1h-1zM19 33h1v1h-1zM27 33h1v1h-1z"/><path fill="#E9904D" d="M27 22h2v1h-2zM30 22h1v1h-1zM14 23h1v1h-1zM28 23h1v1h-1zM30 23h1v1h-1zM14 24h1v1h-1zM28 24h3v1h-3zM13 25h2v1h-2zM30 25h2v1h-2zM13 26h2v1h-2zM30 26h2v1h-2zM13 27h2v1h-2zM30 27h2v1h-2zM13 28h2v1h-2zM27 28h5v1h-5zM14 29h1v1h-1zM27 29h3v1h-3zM14 30h2v1h-2zM18 30h1v1h-1zM26 30h3v1h-3zM30 30h1v1h-1zM15 31h3v1h-3zM26 31h2v1h-2zM29 31h2v1h-2zM17 32h1v1h-1zM19 32h2v1h-2zM24 32h4v1h-4zM29 32h1v1h-1zM18 33h1v1h-1zM20 33h7v1h-7zM28 33h1v1h-1zM20 34h8v1h-8z"/><path fill="#FFF2D9" d="M18 24h1v1h-1zM27 25h1v1h-1z"/><path fill="#784153" d="M34 27h1v1h-1zM34 28h1v1h-1zM31 30h1v1h-1zM16 32h1v1h-1zM30 32h1v1h-1zM29 33h1v1h-1z"/><path fill="#FFE5AC" d="M15 29h3v1h-3z"/></g><g id="halloween-curious-pose-6"><path fill="#2B2433" d="M21 10h7v1h-7zM20 11h2v1h-2zM26 11h1v1h-1zM18 12h3v1h-3zM25 12h2v1h-2zM17 13h2v1h-2zM24 13h2v1h-2zM17 14h1v1h-1zM25 14h2v1h-2zM16 15h2v1h-2zM25 15h2v1h-2zM16 16h1v1h-1zM27 16h1v1h-1zM15 17h1v1h-1zM24 17h2v1h-2zM28 17h1v1h-1zM13 18h2v1h-2zM29 18h6v1h-6zM11 19h3v1h-3zM31 19h5v1h-5zM12 20h1v1h-1zM29 20h9v1h-9zM12 21h24v1h-24zM14 22h1v1h-1zM24 22h1v1h-1zM33 22h1v1h-1zM13 23h1v1h-1zM34 23h1v1h-1zM13 24h1v1h-1zM34 24h1v1h-1zM12 25h1v1h-1zM35 25h1v1h-1zM12 26h1v1h-1zM18 26h3v1h-3zM27 26h3v1h-3zM35 26h1v1h-1zM12 27h1v1h-1zM35 27h1v1h-1zM12 28h1v1h-1zM35 28h1v1h-1zM13 29h1v1h-1zM21 29h1v1h-1zM26 29h1v1h-1zM34 29h1v1h-1zM13 30h1v1h-1zM22 30h4v1h-4zM34 30h1v1h-1zM14 31h1v1h-1zM33 31h1v1h-1zM15 32h1v1h-1zM32 32h1v1h-1zM16 33h2v1h-2zM30 33h2v1h-2zM18 34h2v1h-2zM28 34h2v1h-2zM20 35h8v1h-8z"/><path fill="#655B87" d="M22 11h4v1h-4zM21 12h1v1h-1zM19 13h1v1h-1zM18 14h1v1h-1zM23 14h2v1h-2zM18 15h1v1h-1zM23 15h2v1h-2zM17 16h1v1h-1zM22 16h1v1h-1zM15 18h1v1h-1zM14 19h2v1h-2zM17 19h14v1h-14zM13 20h2v1h-2z"/><path fill="#AAA0BE" d="M22 12h3v1h-3zM20 13h4v1h-4zM19 14h4v1h-4zM19 15h4v1h-4zM18 16h4v1h-4zM15 20h14v1h-14z"/><path fill="#F8BD72" d="M23 16h4v1h-4zM23 17h1v1h-1zM26 17h1v1h-1zM23 18h4v1h-4zM15 22h2v1h-2zM18 22h6v1h-6zM25 22h2v1h-2zM15 23h2v1h-2zM18 23h10v1h-10zM15 24h13v1h-13zM15 25h13v1h-13zM15 26h3v1h-3zM21 26h6v1h-6zM15 27h13v1h-13zM15 28h12v1h-12zM18 29h3v1h-3zM22 29h4v1h-4zM30 29h2v1h-2zM16 30h1v1h-1zM19 30h3v1h-3zM19 31h7v1h-7zM21 32h3v1h-3z"/><path fill="#B75C45" d="M16 17h7v1h-7zM27 17h1v1h-1zM16 18h7v1h-7zM27 18h2v1h-2zM16 19h1v1h-1zM17 22h1v1h-1zM29 22h1v1h-1zM31 22h2v1h-2zM17 23h1v1h-1zM29 23h1v1h-1zM31 23h3v1h-3zM31 24h3v1h-3zM32 25h3v1h-3zM32 26h3v1h-3zM32 27h2v1h-2zM32 28h2v1h-2zM32 29h2v1h-2zM17 30h1v1h-1zM29 30h1v1h-1zM32 30h2v1h-2zM18 31h1v1h-1zM28 31h1v1h-1zM31 31h2v1h-2zM18 32h1v1h-1zM28 32h1v1h-1zM31 32h1v1h-1zM19 33h1v1h-1zM27 33h1v1h-1z"/><path fill="#E9904D" d="M27 22h2v1h-2zM30 22h1v1h-1zM14 23h1v1h-1zM28 23h1v1h-1zM30 23h1v1h-1zM14 24h1v1h-1zM28 24h3v1h-3zM13 25h2v1h-2zM28 25h4v1h-4zM13 26h2v1h-2zM30 26h2v1h-2zM13 27h2v1h-2zM28 27h4v1h-4zM13 28h2v1h-2zM27 28h5v1h-5zM14 29h1v1h-1zM27 29h3v1h-3zM14 30h2v1h-2zM18 30h1v1h-1zM26 30h3v1h-3zM30 30h1v1h-1zM15 31h3v1h-3zM26 31h2v1h-2zM29 31h2v1h-2zM17 32h1v1h-1zM19 32h2v1h-2zM24 32h4v1h-4zM29 32h1v1h-1zM18 33h1v1h-1zM20 33h7v1h-7zM28 33h1v1h-1zM20 34h8v1h-8z"/><path fill="#784153" d="M34 27h1v1h-1zM34 28h1v1h-1zM31 30h1v1h-1zM16 32h1v1h-1zM30 32h1v1h-1zM29 33h1v1h-1z"/><path fill="#FFE5AC" d="M15 29h3v1h-3z"/></g></defs><g class="pm-poster"><path fill="#2B2433" d="M21 10h7v1h-7zM20 11h2v1h-2zM26 11h1v1h-1zM18 12h3v1h-3zM25 12h2v1h-2zM17 13h2v1h-2zM24 13h2v1h-2zM17 14h1v1h-1zM25 14h2v1h-2zM16 15h2v1h-2zM25 15h2v1h-2zM16 16h1v1h-1zM27 16h1v1h-1zM15 17h1v1h-1zM24 17h2v1h-2zM28 17h1v1h-1zM13 18h2v1h-2zM29 18h6v1h-6zM11 19h3v1h-3zM31 19h5v1h-5zM12 20h1v1h-1zM29 20h9v1h-9zM12 21h24v1h-24zM14 22h1v1h-1zM24 22h1v1h-1zM33 22h1v1h-1zM13 23h1v1h-1zM34 23h1v1h-1zM13 24h1v1h-1zM28 24h2v1h-2zM34 24h1v1h-1zM12 25h1v1h-1zM18 25h1v1h-1zM27 25h3v1h-3zM35 25h1v1h-1zM12 26h1v1h-1zM19 26h2v1h-2zM27 26h3v1h-3zM35 26h1v1h-1zM12 27h1v1h-1zM18 27h1v1h-1zM27 27h3v1h-3zM35 27h1v1h-1zM12 28h1v1h-1zM35 28h1v1h-1zM13 29h1v1h-1zM21 29h1v1h-1zM26 29h1v1h-1zM34 29h1v1h-1zM13 30h1v1h-1zM22 30h4v1h-4zM34 30h1v1h-1zM14 31h1v1h-1zM33 31h1v1h-1zM15 32h1v1h-1zM32 32h1v1h-1zM16 33h2v1h-2zM30 33h2v1h-2zM18 34h2v1h-2zM28 34h2v1h-2zM20 35h8v1h-8z"/><path fill="#655B87" d="M22 11h4v1h-4zM21 12h1v1h-1zM19 13h1v1h-1zM18 14h1v1h-1zM23 14h2v1h-2zM18 15h1v1h-1zM23 15h2v1h-2zM17 16h1v1h-1zM22 16h1v1h-1zM15 18h1v1h-1zM14 19h2v1h-2zM17 19h14v1h-14zM13 20h2v1h-2z"/><path fill="#AAA0BE" d="M22 12h3v1h-3zM20 13h4v1h-4zM19 14h4v1h-4zM19 15h4v1h-4zM18 16h4v1h-4zM15 20h14v1h-14z"/><path fill="#F8BD72" d="M23 16h4v1h-4zM23 17h1v1h-1zM26 17h1v1h-1zM23 18h4v1h-4zM15 22h2v1h-2zM18 22h6v1h-6zM25 22h2v1h-2zM15 23h2v1h-2zM18 23h10v1h-10zM15 24h12v1h-12zM15 25h3v1h-3zM19 25h8v1h-8zM15 26h4v1h-4zM21 26h6v1h-6zM15 27h3v1h-3zM19 27h8v1h-8zM15 28h12v1h-12zM18 29h3v1h-3zM22 29h4v1h-4zM30 29h2v1h-2zM16 30h1v1h-1zM19 30h3v1h-3zM19 31h7v1h-7zM21 32h3v1h-3z"/><path fill="#B75C45" d="M16 17h7v1h-7zM27 17h1v1h-1zM16 18h7v1h-7zM27 18h2v1h-2zM16 19h1v1h-1zM17 22h1v1h-1zM29 22h1v1h-1zM31 22h2v1h-2zM17 23h1v1h-1zM29 23h1v1h-1zM31 23h3v1h-3zM31 24h3v1h-3zM32 25h3v1h-3zM32 26h3v1h-3zM32 27h2v1h-2zM32 28h2v1h-2zM32 29h2v1h-2zM17 30h1v1h-1zM29 30h1v1h-1zM32 30h2v1h-2zM18 31h1v1h-1zM28 31h1v1h-1zM31 31h2v1h-2zM18 32h1v1h-1zM28 32h1v1h-1zM31 32h1v1h-1zM19 33h1v1h-1zM27 33h1v1h-1z"/><path fill="#E9904D" d="M27 22h2v1h-2zM30 22h1v1h-1zM14 23h1v1h-1zM28 23h1v1h-1zM30 23h1v1h-1zM14 24h1v1h-1zM30 24h1v1h-1zM13 25h2v1h-2zM30 25h2v1h-2zM13 26h2v1h-2zM30 26h2v1h-2zM13 27h2v1h-2zM30 27h2v1h-2zM13 28h2v1h-2zM27 28h5v1h-5zM14 29h1v1h-1zM27 29h3v1h-3zM14 30h2v1h-2zM18 30h1v1h-1zM26 30h3v1h-3zM30 30h1v1h-1zM15 31h3v1h-3zM26 31h2v1h-2zM29 31h2v1h-2zM17 32h1v1h-1zM19 32h2v1h-2zM24 32h4v1h-4zM29 32h1v1h-1zM18 33h1v1h-1zM20 33h7v1h-7zM28 33h1v1h-1zM20 34h8v1h-8z"/><path fill="#FFF2D9" d="M27 24h1v1h-1z"/><path fill="#784153" d="M34 27h1v1h-1zM34 28h1v1h-1zM31 30h1v1h-1zM16 32h1v1h-1zM30 32h1v1h-1zM29 33h1v1h-1z"/><path fill="#FFE5AC" d="M15 29h3v1h-3z"/></g><g class="pm-frames"><g data-frame="0" visibility="hidden"><use href="#halloween-curious-pose-0"/><animate attributeName="visibility" calcMode="discrete" values="visible;hidden;hidden" keyTimes="0.0000000;0.1643836;1.0000000" dur="2920ms" repeatCount="indefinite" fill="freeze"/></g><g data-frame="1" visibility="hidden"><use href="#halloween-curious-pose-1"/><animate attributeName="visibility" calcMode="discrete" values="hidden;visible;hidden;hidden" keyTimes="0.0000000;0.1643836;0.2465753;1.0000000" dur="2920ms" repeatCount="indefinite" fill="freeze"/></g><g data-frame="2" visibility="hidden"><use href="#halloween-curious-pose-2"/><animate attributeName="visibility" calcMode="discrete" values="hidden;visible;hidden;hidden" keyTimes="0.0000000;0.2465753;0.2876712;1.0000000" dur="2920ms" repeatCount="indefinite" fill="freeze"/></g><g data-frame="3" visibility="hidden"><use href="#halloween-curious-pose-3"/><animate attributeName="visibility" calcMode="discrete" values="hidden;visible;hidden;hidden" keyTimes="0.0000000;0.2876712;0.4794521;1.0000000" dur="2920ms" repeatCount="indefinite" fill="freeze"/></g><g data-frame="4" visibility="hidden"><use href="#halloween-curious-pose-4"/><animate attributeName="visibility" calcMode="discrete" values="hidden;visible;hidden;hidden" keyTimes="0.0000000;0.4794521;0.6438356;1.0000000" dur="2920ms" repeatCount="indefinite" fill="freeze"/></g><g data-frame="5" visibility="hidden"><use href="#halloween-curious-pose-5"/><animate attributeName="visibility" calcMode="discrete" values="hidden;visible;hidden;hidden" keyTimes="0.0000000;0.6438356;0.7260274;1.0000000" dur="2920ms" repeatCount="indefinite" fill="freeze"/></g><g data-frame="6" visibility="hidden"><use href="#halloween-curious-pose-6"/><animate attributeName="visibility" calcMode="discrete" values="hidden;visible;hidden;hidden" keyTimes="0.0000000;0.7260274;0.7808219;1.0000000" dur="2920ms" repeatCount="indefinite" fill="freeze"/></g><g data-frame="7" visibility="hidden"><use href="#halloween-curious-pose-0"/><animate attributeName="visibility" calcMode="discrete" values="hidden;visible;visible" keyTimes="0.0000000;0.7808219;1.0000000" dur="2920ms" repeatCount="indefinite" fill="freeze"/></g></g></svg>
